<?xml version="1.0" standalone="no"?>
<!DOCTYPE svg PUBLIC "-//W3C//DTD SVG 20010904//EN"
 "http://www.w3.org/TR/2001/REC-SVG-20010904/DTD/svg10.dtd">
<svg version="1.0" xmlns="http://www.w3.org/2000/svg"
 width="400.000000pt" height="400.000000pt" viewBox="0 0 400.000000 400.000000"
 preserveAspectRatio="xMidYMid meet">
<metadata>
Created by potrace 1.11, written by Peter Selinger 2001-2013
</metadata>
<g transform="translate(0.000000,400.000000) scale(0.100000,-0.100000)"
fill="#000000" stroke="none">
<path d="M803 3755 c-205 -74 -347 -237 -408 -469 -15 -57 -16 -69 -4 -77 10
-6 20 -1 34 19 135 186 239 208 528 113 87 -28 180 -53 209 -55 52 -2 162 14
210 33 18 7 -2 -18 -65 -82 -205 -206 -309 -425 -331 -695 -2 -23 -5 -44 -7
-46 -2 -2 -33 -6 -69 -9 -140 -13 -264 -69 -357 -162 -68 -69 -121 -163 -130
-237 -7 -47 -17 -46 102 -5 155 55 297 52 408 -6 68 -35 103 -76 123 -143 15
-50 19 -152 6 -170 -4 -5 -37 -20 -73 -32 -169 -54 -273 -152 -304 -288 -14
-55 -10 -173 5 -188 7 -7 25 4 53 31 84 81 179 122 249 109 114 -21 96 -227
-37 -424 -24 -37 -61 -85 -81 -107 -20 -22 -70 -78 -113 -125 -42 -46 -90 -98
-107 -115 -39 -38 -93 -131 -129 -220 -33 -82 -38 -181 -12 -232 17 -33 71
-82 90 -84 7 0 21 -2 32 -4 36 -7 95 17 117 47 27 39 25 85 -7 205 -30 108
-28 143 11 210 23 39 74 82 134 111 37 18 169 59 215 67 22 4 54 9 70 13 43 8
298 8 375 0 138 -16 316 -60 549 -137 l183 -60 117 68 c440 257 597 326 950
417 73 19 138 37 143 40 4 3 8 214 8 478 -1 500 -3 523 -50 621 -71 146 -267
261 -498 292 -23 3 -41 9 -40 14 2 4 46 52 98 107 144 150 162 171 217 247
112 155 163 284 168 424 6 158 -46 291 -150 390 -99 94 -193 131 -330 132 -96
0 -131 -5 -255 -36 -195 -49 -415 -140 -541 -226 -198 -133 -310 -325 -344
-590 -13 -97 -14 -138 -15 -639 -2 -509 -6 -567 -46 -697 -22 -75 -82 -197
-135 -276 -51 -76 -233 -256 -317 -315 -60 -42 -77 -48 -48 -19 20 20 137 201
173 267 55 102 104 242 119 340 3 19 7 42 9 50 5 18 16 135 20 210 2 30 4 276
5 545 1 270 6 519 11 555 22 155 67 284 136 387 51 77 167 193 253 253 19 13
37 27 40 30 3 3 44 31 92 61 127 79 118 97 -28 58 -173 -47 -301 -71 -374 -71
-76 1 -175 20 -430 85 -115 30 -152 35 -250 35 -94 0 -126 -4 -177 -23z m1797
-292 c144 -96 255 -246 285 -386 37 -178 -11 -361 -136 -511 -66 -79 -259
-231 -266 -209 -2 4 -4 109 -6 233 l-2 225 -60 0 -60 0 -1 -838 c-1 -460 -3
-839 -6 -842 -2 -3 -20 0 -38 5 -115 33 -476 35 -670 4 -35 -6 -35 -5 15 24
260 156 404 296 469 458 33 82 64 238 72 360 3 54 6 334 6 622 0 287 5 546 10
575 21 113 94 214 190 263 27 13 51 25 55 26 5 1 24 8 43 15 19 6 37 12 40 13
3 0 30 -16 60 -37z m244 -1190 c58 -41 86 -103 90 -201 4 -93 0 -109 -27 -115
-12 -3 -56 -14 -97 -24 -41 -10 -82 -18 -90 -18 -30 1 -219 38 -230 45 -11 7
-13 34 -11 157 l1 51 68 50 c37 28 91 66 120 85 l54 35 40 -18 c22 -10 59 -31
82 -47z m-234 -450 c41 -3 89 -7 105 -7 49 1 183 14 200 20 13 5 15 -13 15
-147 l0 -154 -225 0 -225 0 0 28 c-1 35 -1 174 0 231 0 41 1 43 28 40 15 -2
61 -7 102 -11z m222 -398 c7 -2 32 -9 56 -15 l42 -11 0 -143 0 -142 -111 -56
-112 -55 -109 38 c-61 21 -112 40 -115 43 -6 5 -4 318 2 324 2 2 21 6 42 8 21
2 61 8 88 13 47 9 188 6 217 -4z"/>
</g>
</svg>
